<?xml version="1.0" encoding="utf-8"?>
<svg id="Layer_1" x="0px" y="0px" viewBox="0 0 612 612" xmlns="http://www.w3.org/2000/svg">
  <path fill="#3E3E3E" d="M 442.6 19.05 L 169.4 19.05 C 153.5 19.05 140.5 32.05 140.5 47.95 L 140.5 556.05 C 140.5 572.05 153.5 584.95 169.4 584.95 L 442.5 584.95 C 458.5 584.95 471.4 571.95 471.4 556.05 L 471.4 47.95 C 471.5 32.05 458.5 19.05 442.6 19.05 Z"/>
  <path fill="#1E1E1E" d="M 185.5 113.35 C 185.5 93.85 201.5 77.95 221.3 77.95 L 385.4 77.95 C 405.2 77.95 421.2 93.75 421.2 113.35 L 421.2 113.35 C 421.2 132.85 405.2 148.75 385.4 148.75 L 221.3 148.75 C 201.6 148.75 185.5 132.95 185.5 113.35 L 185.5 113.35 Z"/>
  <ellipse fill="#B8D432" cx="221.5" cy="113.35" rx="23.6" ry="23.6"/>
  <path fill="#1E1E1E" d="M 185.5 207.75 C 185.5 188.25 201.5 172.35 221.3 172.35 L 385.4 172.35 C 405.2 172.35 421.2 188.15 421.2 207.75 L 421.2 207.75 C 421.2 227.25 405.2 243.15 385.4 243.15 L 221.3 243.15 C 201.6 243.15 185.5 227.25 185.5 207.75 L 185.5 207.75 Z"/>
  <ellipse fill="#B8D432" cx="221.5" cy="207.75" rx="23.6" ry="23.6"/>
  <path fill="#1E1E1E" d="M 185.5 302.05 C 185.5 282.55 201.5 266.65 221.3 266.65 L 385.4 266.65 C 405.2 266.65 421.2 282.45 421.2 302.05 L 421.2 302.05 C 421.2 321.55 405.2 337.45 385.4 337.45 L 221.3 337.45 C 201.6 337.45 185.5 321.55 185.5 302.05 L 185.5 302.05 Z"/>
  <ellipse fill="#B8D432" cx="221.5" cy="302.05" rx="23.6" ry="23.6"/>
</svg>