<!-- Exported by Character Map UWP -->
<svg height="100%" viewBox="0 0 960 960" width="100%" xmlns="http://www.w3.org/2000/svg" xmlns:xlink="http://www.w3.org/1999/xlink">
  <path d="M480,960C435.667,960 393.083,954.333 352.25,943C311.417,931.667 273.167,915.583 237.5,894.75C201.833,873.917 169.417,848.917 140.25,819.75C111.083,790.583 86.0833,758.167 65.25,722.5C44.4167,686.833 28.3333,648.583 17,607.75C5.66667,566.917 0,524.333 0,480C0,435.667 5.66667,393.083 17,352.25C28.3333,311.417 44.4167,273.167 65.25,237.5C86.0833,201.833 111.083,169.417 140.25,140.25C169.417,111.083 201.833,86.0834 237.5,65.25C273.167,44.4168 311.417,28.3334 352.25,17C393.083,5.66669 435.667,0 480,0C524.333,0 566.917,5.66669 607.75,17C648.583,28.3334 686.833,44.4168 722.5,65.25C758.167,86.0834 790.583,111.083 819.75,140.25C848.917,169.417 873.917,201.833 894.75,237.5C915.583,273.167 931.667,311.417 943,352.25C954.333,393.083 960,435.667 960,480C960,524.333 954.333,566.917 943,607.75C931.667,648.583 915.583,686.833 894.75,722.5C873.917,758.167 848.917,790.583 819.75,819.75C790.583,848.917 758.167,873.917 722.5,894.75C686.833,915.583 648.583,931.667 607.75,943C566.917,954.333 524.333,960 480,960ZM480,64C441.667,64.0001 404.833,69.0001 369.5,79C334.167,89.0001 301.083,103 270.25,121C239.417,139 211.333,160.667 186,186C160.667,211.333 139,239.417 121,270.25C103,301.083 89,334.25 79,369.75C69,405.25 64,442 64,480C64,518 69,554.75 79,590.25C89,625.75 103,658.917 121,689.75C139,720.583 160.667,748.667 186,774C211.333,799.333 239.417,821 270.25,839C301.083,857 334.167,871 369.5,881C404.833,891 441.667,896 480,896C518,896 554.75,891 590.25,881C625.75,871 658.917,857 689.75,839C720.583,821 748.667,799.333 774,774C799.333,748.667 821,720.583 839,689.75C857,658.917 871,625.833 881,590.5C891,555.167 896,518.333 896,480C896,442 891,405.25 881,369.75C871,334.25 857,301.083 839,270.25C821,239.417 799.333,211.333 774,186C748.667,160.667 720.583,139 689.75,121C658.917,103 625.75,89.0001 590.25,79C554.75,69.0001 518,64.0001 480,64ZM448,384L512,384L512,704L448,704ZM448,256L512,256L512,320L448,320Z" fill="#000000">
  </path>
</svg>